<svg version="1.1" id="Layer_1" xmlns="http://www.w3.org/2000/svg" xmlns:xlink="http://www.w3.org/1999/xlink" x="0px" y="0px"
	 width="100%" viewBox="0 0 208 112" enable-background="new 0 0 208 112" xml:space="preserve">
<path fill="#000000" opacity="1.000000" stroke="none" 
	d="
M128.599030,82.324074 
	C128.288940,74.074554 134.047195,69.027107 137.972809,62.435467 
	C133.314056,62.387226 129.344437,59.314629 125.042038,62.734169 
	C123.549431,63.920486 121.255203,63.134899 119.867661,61.998959 
	C116.975723,59.631409 114.360329,59.470055 111.368195,61.730778 
	C109.532089,63.118046 107.321533,63.131222 105.140976,62.450207 
	C104.346786,62.202171 103.426208,61.495235 102.800224,61.704929 
	C96.035637,63.970947 95.186028,59.883873 95.492188,54.678043 
	C94.924706,54.890072 94.581642,54.918808 94.391914,55.104340 
	C92.214104,57.233887 92.998627,63.145969 88.670158,61.753426 
	C85.307884,60.671722 82.522049,62.478073 79.513359,61.469570 
	C76.450699,60.442970 68.079109,63.565533 66.293427,66.176666 
	C60.212593,75.068436 52.452343,81.395363 41.358322,82.788284 
	C32.822929,83.859955 26.338320,79.621391 24.056055,71.220551 
	C21.416935,61.506134 23.202480,52.009315 26.170525,42.766811 
	C29.886536,31.195126 35.360195,20.611202 45.452755,13.094366 
	C48.781700,10.615000 52.445530,9.377697 56.610432,9.399228 
	C60.461628,9.419140 62.814819,11.273705 62.772278,15.042636 
	C62.683914,22.870502 59.998531,30.023285 56.154522,36.756195 
	C55.539677,37.833118 54.536373,38.440845 53.082653,37.767899 
	C51.551544,35.567520 53.290508,33.722813 54.027241,31.842108 
	C55.724823,27.508562 57.936665,23.329048 58.553059,18.669098 
	C58.818798,16.660152 59.513176,14.115495 57.130745,12.763325 
	C55.107201,11.614844 53.238132,12.923518 51.532742,13.902553 
	C47.135387,16.426998 43.539566,19.835047 40.606705,23.990993 
	C31.909464,36.315228 27.024527,49.893536 27.400328,65.075287 
	C27.705965,77.422562 36.370533,82.748245 47.459301,77.491524 
	C50.445133,76.076057 53.233597,74.155128 55.904812,72.184486 
	C60.831631,68.549805 64.315186,63.568321 67.043037,58.243587 
	C71.192032,50.144821 71.311607,49.826401 80.723648,50.512043 
	C82.947998,52.374825 79.480110,56.822605 83.064987,57.300770 
	C86.988892,57.824162 86.323845,53.026360 87.867157,51.087784 
	C89.447266,50.076614 90.715714,51.201214 92.019562,50.996704 
	C99.429848,49.834396 99.430534,49.838783 100.016388,57.862625 
	C103.018791,54.478004 104.710602,50.421497 109.288742,49.542133 
	C108.500534,45.660950 107.711617,42.119919 107.072342,38.552071 
	C105.975838,32.432262 106.581352,26.571596 110.388550,21.424721 
	C112.734055,18.253885 116.034248,16.691683 119.972321,17.238897 
	C124.110390,17.813904 126.264580,20.720196 127.285484,24.531281 
	C130.438370,36.301186 127.015411,46.504738 119.679596,55.657478 
	C122.220604,60.199390 125.043449,60.378159 128.360962,56.525551 
	C129.758118,54.903053 129.360748,51.310917 132.682816,51.819721 
	C136.286896,52.371716 133.312775,56.387348 135.509995,57.950039 
	C137.729340,57.293953 137.506027,55.150112 138.108551,53.544247 
	C138.570251,52.313644 138.660187,50.761406 140.426941,50.730797 
	C142.511749,50.694679 142.622879,52.434742 142.915955,53.870220 
	C143.169907,55.114143 143.258881,56.391750 143.418900,57.639793 
	C146.091492,57.737656 146.950485,54.669006 149.688629,55.008717 
	C150.608948,57.415428 148.743576,58.483727 147.241867,59.587597 
	C143.568558,62.287750 142.061539,65.775848 142.322708,70.380196 
	C142.683426,76.739494 142.159439,83.045349 138.896515,88.769241 
	C137.459167,91.290657 139.352402,94.374512 137.550858,96.897301 
	C134.745956,96.026566 137.051086,92.558487 134.551819,91.561867 
	C131.996674,92.460747 133.393036,95.370522 130.758987,97.163902 
	C130.035873,92.348434 129.312759,87.532967 128.599030,82.324074 
M119.257187,48.466473 
	C123.757782,41.135281 126.144135,33.430042 123.322426,24.850132 
	C122.636864,22.765554 121.729942,20.742533 119.225960,20.306673 
	C116.803970,19.885086 115.041977,21.172621 113.674103,22.932501 
	C112.774277,24.090212 111.946335,25.411139 111.495064,26.792542 
	C108.805954,35.024338 111.529373,42.451443 115.277267,49.611370 
	C116.683922,52.298637 117.847565,50.299919 119.257187,48.466473 
M137.128952,74.320732 
	C137.048431,74.176140 136.991989,74.008148 136.880600,73.893570 
	C136.770523,73.780357 136.514328,73.619125 136.476547,73.652679 
	C132.747498,76.964890 131.735840,82.915398 134.550323,86.118423 
	C137.364792,82.768074 136.628326,78.639053 137.128952,74.320732 
M108.238205,58.991680 
	C109.557510,58.365181 110.905159,57.767284 111.217529,56.063290 
	C110.400787,54.432697 109.111183,53.769390 107.794182,55.168640 
	C106.846222,56.175804 105.224838,57.713123 108.238205,58.991680 
z"/>
<path fill="#000000" opacity="1.000000" stroke="none" 
	d="
M189.844727,22.845222 
	C181.452454,31.199152 172.486816,38.444496 164.745224,46.967743 
	C159.734604,52.484272 160.113602,54.637856 167.132904,57.211979 
	C171.962296,58.983009 176.989792,60.211422 181.919434,61.712944 
	C183.448853,62.178795 185.248764,62.232658 186.107986,64.256523 
	C185.058380,65.899315 183.610947,65.225105 182.252029,64.858841 
	C176.316376,63.259014 170.321320,61.841362 164.475464,59.960857 
	C160.990005,58.839645 160.324341,60.274895 160.332764,63.197399 
	C160.351974,69.858902 160.367874,76.521263 160.274384,83.181725 
	C160.245819,85.218285 160.749039,87.604004 158.102097,88.787651 
	C155.710754,87.772186 155.910629,85.562347 155.904526,83.699112 
	C155.835220,62.554623 155.837891,41.409828 155.871826,20.265196 
	C155.874680,18.486246 155.840530,16.545748 158.430313,15.053456 
	C161.827744,19.227657 159.926727,24.150198 160.209961,28.584169 
	C160.513443,33.334759 160.278427,38.119743 160.278427,42.489769 
	C162.199387,43.556366 162.857941,42.606499 163.548737,41.965313 
	C172.945221,33.243729 182.302338,24.479546 191.729858,15.791744 
	C193.323395,14.323241 194.707321,11.958343 198.202148,13.560103 
	C196.542740,17.628841 192.678146,19.594213 189.844727,22.845222 
z"/>
<path fill="#000000" opacity="1.000000" stroke="none" 
	d="
M114.129791,97.168320 
	C112.141769,96.912369 109.871613,97.562958 110.246880,94.533386 
	C110.533272,92.221413 112.015045,91.632187 114.096886,91.687469 
	C116.236969,91.744308 118.198112,92.018433 118.296677,94.715996 
	C118.399734,97.536552 116.224220,97.133316 114.129791,97.168320 
z"/>
<path fill="#000000" opacity="1.000000" stroke="none" 
	d="
M96.288620,91.740051 
	C99.621353,91.937943 100.143349,93.810257 99.093658,96.146103 
	C98.360115,97.778419 96.501694,97.895119 95.268875,96.972099 
	C92.723358,95.066238 94.114128,93.342087 96.288620,91.740051 
z"/>
<path fill="#000000" opacity="1.000000" stroke="none" 
	d="
M126.048515,94.988007 
	C125.021492,97.710136 123.392090,97.863060 121.806618,96.289246 
	C120.528519,95.020523 121.025581,93.327240 122.421326,92.480644 
	C124.589073,91.165794 125.774742,92.296257 126.048515,94.988007 
z"/>
<path fill="#000000" opacity="1.000000" stroke="none" 
	d="
M64.130402,93.641068 
	C64.826637,97.367653 62.950352,97.592010 60.338478,97.043633 
	C59.670948,95.463997 59.175949,93.708450 60.667511,92.553604 
	C61.605270,91.827545 63.221294,91.693962 64.130402,93.641068 
z"/>
<path fill="#000000" opacity="1.000000" stroke="none" 
	d="
M68.632050,96.801872 
	C66.839073,94.821365 67.145111,93.220871 69.179718,92.241638 
	C70.445526,91.632416 71.529778,92.534035 71.797829,93.753059 
	C72.276237,95.928741 71.560699,97.349815 68.632050,96.801872 
z"/>
<path fill="#000000" opacity="1.000000" stroke="none" 
	d="
M90.975967,95.825409 
	C90.104240,98.109741 88.666618,97.722954 87.467903,96.670776 
	C86.331268,95.673111 86.519768,94.268082 87.348732,93.069054 
	C87.940613,92.212944 88.836571,91.652847 89.897560,91.894318 
	C92.331955,92.448372 90.842522,94.230103 90.975967,95.825409 
z"/>
<path fill="#000000" opacity="1.000000" stroke="none" 
	d="
M106.594971,92.558800 
	C107.268562,94.868721 107.661606,96.905403 104.727501,97.201027 
	C103.305321,97.344315 102.652054,96.468208 102.727798,95.104126 
	C102.854187,92.827950 103.560493,91.215240 106.594971,92.558800 
z"/>
</svg>